<svg class="svg svg-frog">
  <g id="frog-ani">
    <path id="p2" d="M186.959,121.137c-0.449-5.106-0.593-6.891-1.158-11.727
      c-0.66-5.657-1.096-8.766-2.109-13.966c-1.113-5.71-1.941-8.319-3.417-11.733"/>
      <animate xlink:href="#p2"
               attributeName="d" 
               dur="5s" 
               repeatCount="indefinite"
               keyTimes="0; .15; .2; 1"
               values="M186.959,121.137c-0.449-5.106-0.593-6.891-1.158-11.727
            c-0.66-5.657-1.096-8.766-2.109-13.966c-1.113-5.71-1.941-8.319-3.417-11.733;

            M186.959,121.137c4.969-0.592,9.697-3.129,12.949-7.439
            c6.334-8.395,4.664-20.334-3.73-26.668c-4.723-3.563-10.566-4.593-15.903-3.318;

            M186.959,121.137c-0.449-5.106-0.593-6.891-1.158-11.727
            c-0.66-5.657-1.096-8.766-2.109-13.966c-1.113-5.71-1.941-8.319-3.417-11.733;

            M186.959,121.137c-0.449-5.106-0.593-6.891-1.158-11.727
            c-0.66-5.657-1.096-8.766-2.109-13.966c-1.113-5.71-1.941-8.319-3.417-11.733
            "/>

    <path id="p1" d="M63.041,121.137c0.449-5.106,0.593-6.891,1.158-11.727
      c0.661-5.657,1.097-8.766,2.11-13.966c1.113-5.71,1.941-8.319,3.417-11.733"/>
      <animate xlink:href="#p1"
               attributeName="d" 
               dur="5s" 
               repeatCount="indefinite"
               keyTimes="0; .15; .2; 1"
               values="M63.041,121.137c0.449-5.106,0.593-6.891,1.158-11.727
            c0.661-5.657,1.097-8.766,2.11-13.966c1.113-5.71,1.941-8.319,3.417-11.733;

            M63.041,121.137c-4.968-0.592-9.697-3.129-12.949-7.439
            c-6.334-8.395-4.664-20.334,3.73-26.668c4.722-3.563,10.566-4.593,15.903-3.318;

            M63.041,121.137c0.449-5.106,0.593-6.891,1.158-11.727
            c0.661-5.657,1.097-8.766,2.11-13.966c1.113-5.71,1.941-8.319,3.417-11.733;
            
            M63.041,121.137c0.449-5.106,0.593-6.891,1.158-11.727
            c0.661-5.657,1.097-8.766,2.11-13.966c1.113-5.71,1.941-8.319,3.417-11.733
            "/>
  </g>

  <g id="frog">
    <line x1="49" y1="93.5" x2="201" y2="93.5"/>
    <path d="M159.954,61.317c-9.985-6.723-22.011-10.649-34.954-10.649
      s-24.969,3.926-34.954,10.649"/>
    <path d="M77.153,124c-0.255,3.61-0.386,6.727-0.386,8.799
      c0,13.18,5.287,25.123,13.855,33.828L125,198.875l34.377-32.248c8.568-8.705,13.855-20.648,13.855-33.828
      c0-2.072-0.131-5.188-0.386-8.799"/>
    <line x1="139.295" y1="199" x2="162.312" y2="173.671"/>
    <line x1="110.705" y1="199" x2="87.688" y2="173.671"/>
    <path d="M62.564,140.181l-21.901-12.759
      c-8.156-4.709-18.602-1.981-23.311,6.175l-0.188,0.277c-4.708,8.156-1.918,18.836,6.238,23.545L90.75,196.5H14"/>
    <line x1="69.073" y1="163.608" x2="40.254" y2="146.97"/>
    <path d="M187.436,140.181l21.9-12.759c8.156-4.709,18.603-1.981,23.312,6.175
      l0.188,0.277c4.708,8.156,1.918,18.836-6.238,23.545L159.25,196.5H236"/>
    <line x1="180.927" y1="163.608" x2="209.746" y2="146.97"/>
    <circle cx="76" cy="69.021" r="16.021"/>
    <circle cx="174" cy="69.021" r="16.021"/>
    <line x1="67" y1="69.5" x2="84" y2="69.5"/>
    <line x1="165" y1="69.5" x2="182" y2="69.5"/>
    <circle fill="none" stroke="#000000" stroke-miterlimit="10" cx="117.5" cy="80" r="2.417"/>
    <circle fill="none" stroke="#000000" stroke-miterlimit="10" cx="132.5" cy="80" r="2.417"/>

    <path d="M63.045,121.112c-0.467,5.861-0.711,11.008-0.711,14.221
      c0,14.138,4.682,27.182,12.58,37.667l20.919,25.875"/>
    <path d="M186.955,121.112c0.467,5.861,0.711,11.008,0.711,14.221
      c0,14.138-4.682,27.182-12.58,37.667l-20.919,25.875"/>
  </g>
</svg>